<svg width="86" height="85" viewBox="0 0 86 85" fill="none" xmlns="http://www.w3.org/2000/svg">
<path d="M85.3111 66.1244C84.8668 69.1681 83.9782 72.0784 82.3119 74.6778C78.6907 80.4318 73.5364 83.8976 66.7382 84.8085C55.0968 86.3636 44.5884 78.2768 42.8111 66.8131C42.5223 65.0136 42.4557 63.1697 42.7445 61.3479C42.7445 61.3035 42.7667 61.2368 42.7667 61.1924C42.7223 60.8591 43.0111 60.326 42.5667 60.2371C42.1224 60.1482 42.1224 60.7259 42.0113 61.0147C38.9899 68.5238 35.9907 76.033 32.9692 83.5421C32.8804 83.7421 32.8137 83.9642 32.7026 84.1642C32.4583 84.6974 32.0584 84.964 31.4585 84.9862C30.8587 85.0084 30.4588 84.6974 30.1922 84.1864C30.0367 83.8754 29.9034 83.5199 29.7701 83.1867C26.8153 75.8108 23.8383 68.4349 20.9279 61.0369C20.6169 60.2593 20.3059 60.1038 19.5283 60.4593C17.551 61.3257 15.5294 62.1033 13.5299 62.9253C11.8859 63.614 10.3529 64.5026 8.97551 65.6357C8.13128 66.3244 7.42036 66.3022 6.86495 65.6357C6.33175 64.9914 6.44283 64.2583 7.28706 63.5473C8.81999 62.2366 10.5307 61.2146 12.3968 60.4593C15.3294 59.2596 18.2398 58.0599 21.1945 56.8824C21.7944 56.638 22.061 56.327 22.0388 55.6605C21.9943 54.5497 22.0165 53.4389 22.0388 52.328C22.0388 51.8171 21.861 51.4616 21.4611 51.1284C17.7066 47.8625 15.5738 43.7747 15.285 38.776C15.2628 38.5094 15.1961 38.2206 15.1961 37.954C15.1961 37.3986 14.9739 37.1542 14.3963 37.0209C10.9528 36.1989 9.08659 32.8887 10.1085 29.534C10.2641 29.0452 10.3307 28.5565 10.3307 28.0677C10.3307 26.9124 10.3085 25.735 10.3307 24.5797C10.3529 23.7577 10.2196 23.1134 9.55313 22.4469C7.95355 20.8696 8.44231 17.4482 10.3307 16.2263C10.7973 15.9153 10.9306 15.5376 10.9306 15.0489C10.9306 13.7381 10.9528 12.4496 11.2416 11.161C11.9303 8.09514 13.6854 5.80684 16.4624 4.31834C16.8401 4.1184 17.1734 3.89623 17.4844 3.62963C19.6394 1.71902 22.1498 0.808148 25.0602 1.05253C26.0155 1.11918 26.9042 1.03031 27.815 0.67485C30.1478 -0.236024 32.5471 -0.213807 34.8799 0.67485C35.7463 1.0081 36.5905 1.11918 37.4792 1.05253C40.4118 0.785932 42.9444 1.65237 45.1438 3.60742C45.4549 3.89623 45.8103 4.09618 46.188 4.29613C49.7649 6.29561 51.5866 9.36147 51.6977 13.4493C51.6977 13.6937 51.6977 13.9381 51.7199 14.2047C51.7643 15.1155 51.8532 15.8709 52.9862 16.293C54.3637 16.804 54.8969 18.4702 54.6525 20.4697C54.497 21.6694 54.0082 22.6469 52.8752 23.1801C52.4753 23.3578 52.3864 23.6466 52.3864 24.0465C52.4086 25.535 52.4086 27.0457 52.3864 28.5342C52.3864 28.9119 52.4975 29.2452 52.6086 29.5784C53.6305 32.9331 51.7421 36.2878 48.3208 37.0654C47.7432 37.1987 47.5654 37.3986 47.5432 37.9762C47.3433 43.2193 45.3216 47.6404 41.3226 51.0839C40.9894 51.3727 40.9005 51.6838 40.9005 52.1059C40.9227 53.35 40.9227 54.5941 40.9005 55.8382C40.8783 56.3714 41.0782 56.6158 41.567 56.838C43.4332 57.6378 43.3888 57.6378 44.1663 55.816C47.3433 48.3735 52.964 43.9524 60.9397 42.5528C63.8056 42.0418 66.6938 42.2862 69.5153 43.0194C69.6486 43.0638 69.7819 43.1082 69.9152 43.1527C70.7594 43.4637 71.1371 44.0413 70.9593 44.7745C70.7816 45.5298 70.204 45.8853 69.2931 45.752C68.4267 45.6187 67.5602 45.3521 66.6716 45.2632C58.8514 44.3968 52.6086 47.1738 48.3208 53.7277C41.0116 64.8803 47.9209 80.0764 61.1175 82.1203C71.6258 83.7421 81.29 76.655 82.6007 66.0578C83.5116 58.6597 80.7123 52.6835 74.625 48.2846C74.3807 48.1069 74.1141 47.9514 73.8697 47.7737C73.2254 47.2627 73.0699 46.574 73.4698 45.9519C73.8697 45.3299 74.6695 45.1521 75.3804 45.5742C76.5801 46.2852 77.6909 47.1294 78.6907 48.0847C82.3786 51.5505 84.6002 55.7938 85.2889 60.8147C85.3111 60.948 85.3556 61.0813 85.4 61.2146C85.3111 62.792 85.3111 64.4582 85.3111 66.1244ZM44.6329 27.2013C44.3663 27.4012 44.1441 27.5567 43.9219 27.7122C42.2779 28.9341 40.434 29.6673 38.3901 29.7339C33.9912 29.845 30.7698 27.9122 28.7259 24.0465C28.4815 23.58 28.1927 23.4245 27.6817 23.4245C24.6825 23.4467 21.6833 23.4467 18.6841 23.4245C18.062 23.4245 17.8621 23.6244 17.8621 24.2465C17.8843 25.9349 17.8399 27.6234 17.8843 29.3118C17.9509 32.6221 17.6843 35.9545 18.0176 39.2648C18.4841 43.908 20.7724 47.5071 24.5937 50.1064C27.1263 51.8393 29.9478 52.7279 33.0359 52.1281C39.6786 50.8395 44.7217 44.7522 44.7662 37.9762C44.7884 34.6438 44.7662 31.3335 44.7662 28.0011C44.7662 27.7789 44.8328 27.5345 44.6329 27.2013ZM19.6394 20.7141C21.8388 20.7141 24.016 20.7141 26.2155 20.7141C27.5929 20.7141 27.5484 20.7141 27.704 19.4033C27.7928 18.6702 27.504 18.5591 26.9042 18.5591C25.2379 18.5813 23.5717 18.5813 21.9055 18.5369C20.9057 18.5146 20.2615 17.8704 20.3059 17.0928C20.3503 16.3152 20.9724 15.8487 21.9721 15.8487C23.7494 15.8487 25.5267 15.8042 27.3041 15.8709C28.1038 15.8931 28.526 15.6487 28.9036 14.9156C32.325 8.49503 41.056 7.65081 45.6993 13.2716C46.2325 13.9158 46.6546 14.6268 47.0322 15.3821C47.4321 16.1819 48.1653 15.8265 48.7207 15.8042C49.2983 15.782 49.0984 15.2044 49.0762 14.8711C49.0762 14.2935 48.9651 13.7159 48.9429 13.1383C48.8096 10.1613 47.4099 7.98405 44.7884 6.62885C44.3218 6.38447 43.8775 6.09566 43.4998 5.74019C41.767 4.16283 39.7453 3.4519 37.3903 3.76293C36.3906 3.89623 35.4353 3.8518 34.4577 3.40747C32.4361 2.47438 30.3699 2.47438 28.326 3.38525C27.3707 3.80737 26.4154 3.91845 25.4157 3.78515C23.0163 3.4519 20.9724 4.16283 19.2173 5.74019C18.7952 6.11787 18.3508 6.40669 17.8621 6.67329C15.6849 7.80632 14.3519 9.58364 13.8853 12.0052C13.6632 13.1383 13.8409 14.2713 13.6187 15.4043C13.5299 15.8487 13.8853 15.8709 14.1964 15.8709C14.9073 15.8709 15.6404 15.8487 16.3514 15.8931C17.4622 15.9598 18.0176 17.0261 17.4622 17.9148C17.1067 18.4702 16.5291 18.5813 15.9292 18.6035C14.8851 18.6257 13.8187 18.6035 12.7745 18.6035C11.4415 18.6035 11.4193 18.6257 11.3971 19.6477C11.3971 20.7141 11.4193 20.7363 12.7301 20.7363C15.0184 20.7363 17.3289 20.7141 19.6394 20.7141ZM23.3717 59.5039C23.3273 59.5262 23.3051 59.5706 23.2607 59.5928C25.9489 66.3244 28.6593 73.0338 31.3474 79.7653C31.4141 79.7653 31.4807 79.7431 31.5696 79.7431C34.2356 73.056 36.9238 66.391 39.5897 59.7039C39.5231 59.6595 39.4787 59.6372 39.412 59.5928C38.1012 60.7258 36.7683 61.8367 35.4575 62.9697C34.8354 63.5251 34.1912 64.0583 33.3914 64.3471C31.1697 65.1469 29.2147 64.6582 27.4596 63.103C26.1266 61.8589 24.7492 60.6814 23.3717 59.5039ZM37.8569 27.0235C41.9669 27.0235 45.2771 23.7133 45.2771 19.6255C45.2771 15.5599 41.9447 12.2718 37.8124 12.2718C33.7246 12.2718 30.3699 15.6043 30.3921 19.6699C30.3921 23.7355 33.7468 27.0235 37.8569 27.0235ZM38.1235 55.5272C38.1235 54.8829 38.1012 54.483 38.1235 54.0609C38.1901 53.3278 37.9457 53.2833 37.3459 53.5944C35.5686 54.4608 33.6802 54.9718 31.6807 55.0384C29.5257 55.1051 27.504 54.6385 25.5712 53.7277C24.7492 53.35 24.7492 53.35 24.727 54.2831C24.727 55.0384 24.727 55.7716 24.727 56.5269C24.727 56.8824 24.838 57.149 25.1046 57.3934C26.6153 58.6819 28.1038 60.0149 29.6368 61.3035C30.7254 62.2144 32.1028 62.2144 33.2136 61.3035C34.4133 60.326 35.5241 59.2374 36.7683 58.3043C37.7902 57.5267 38.4567 56.6825 38.1235 55.5272ZM47.5432 31.2891C47.5432 32.1555 47.5654 32.9998 47.5432 33.8662C47.5432 34.3105 47.721 34.3772 48.0986 34.2661C49.2317 33.9328 50.1425 32.6665 50.1425 31.3335C50.1425 29.9561 49.2983 28.7342 48.1209 28.4009C47.721 28.2899 47.5432 28.3787 47.5432 28.8008C47.5432 29.6451 47.5432 30.4671 47.5432 31.2891ZM15.1517 31.3557C15.1517 30.5559 15.1295 29.7562 15.1517 28.9341C15.1739 28.2899 14.8851 28.2454 14.3741 28.4676C13.3077 28.9341 12.5301 30.0894 12.5301 31.3113C12.5301 32.5554 13.2633 33.7107 14.3297 34.1772C14.8406 34.3994 15.1295 34.3105 15.1295 33.6885C15.1517 32.9109 15.1517 32.1333 15.1517 31.3557ZM49.8315 20.7141C50.2981 20.7141 50.7646 20.7141 51.2312 20.7141C51.9865 20.7141 51.9421 20.1809 51.9199 19.6699C51.8976 19.1811 52.0532 18.6035 51.2756 18.6035C50.3425 18.5813 49.4094 18.6035 48.4541 18.6035C48.1875 18.6035 47.9876 18.6257 47.9431 18.9812C47.7432 20.6474 47.8098 20.7363 49.4983 20.7363C49.6094 20.7141 49.7204 20.7141 49.8315 20.7141ZM13.0633 24.7352C13.0633 26.0016 13.0633 26.0016 14.263 25.6905C15.0628 25.4906 15.5071 24.4464 15.1072 23.7133C15.0406 23.58 14.9295 23.5133 14.7962 23.4689C13.6187 23.0912 13.0633 23.4911 13.0633 24.7352ZM49.6316 24.8463C49.6316 23.4467 49.6316 23.4911 48.6096 23.4245C47.7876 23.38 47.4544 23.6022 47.521 24.4686C47.5877 25.3573 48.2986 26.0238 49.2761 25.8683C49.9426 25.8016 49.4538 25.1574 49.6316 24.8463Z" fill="white"/>
<path d="M0 76.6106C0.444329 74.1445 1.11082 71.7452 2.33272 69.5457C2.59932 69.057 2.86592 68.5682 3.19917 68.1239C3.71014 67.413 4.44328 67.2575 5.08756 67.6573C5.75405 68.0795 5.90957 68.8348 5.42081 69.6346C4.30999 71.4786 3.44355 73.4114 2.99922 75.522C2.55489 77.7436 2.55489 79.9875 2.55489 82.2091C2.55489 82.5424 2.53267 82.8756 2.55489 83.2088C2.59932 83.9198 2.46602 84.564 1.73288 84.8529C0.977523 85.1639 0.466545 84.764 0 84.2308C0 81.6981 0 79.1432 0 76.6106Z" fill="white"/>
<path d="M58.0295 51.1062C59.8957 51.1506 61.5397 51.6172 62.9838 52.6169C63.7836 53.1723 64.4723 53.1279 65.2721 52.6169C70.6485 49.2178 77.4022 51.9949 78.7575 58.171C79.3129 60.7259 78.713 63.0586 77.2023 65.1692C76.2914 66.4355 75.425 67.7241 74.4475 68.9238C73.8254 69.7236 73.4699 70.5678 73.3811 71.5453C73.2922 72.7894 73.1367 74.0113 73.0256 75.2555C72.8701 77.1216 71.5593 78.5435 69.8487 78.6324C67.9603 78.7434 66.494 77.6104 66.0941 75.6998C65.8053 74.2335 65.5387 72.7672 65.2499 71.3009C65.2054 71.0788 65.161 70.8788 65.1166 70.6567C65.0055 70.079 64.7611 69.6569 64.0946 69.6569C63.4281 69.6569 63.1837 70.1235 63.0727 70.6789C62.8061 71.9896 62.5839 73.3004 62.3395 74.589C62.2284 75.1222 62.1396 75.6776 61.984 76.2108C61.4731 77.8326 59.9624 78.8101 58.2517 78.6324C56.6743 78.4768 55.4302 77.2105 55.2303 75.5443C55.0525 73.9225 54.8748 72.3007 54.7193 70.6789C54.6748 70.1901 54.4082 69.8569 54.1639 69.5014C53.053 67.9463 51.8756 66.4355 50.8092 64.8582C48.4987 61.4368 48.7431 57.1935 51.4757 54.1054C53.253 52.1282 55.4969 51.1729 58.0295 51.1062ZM52.0089 59.9261C51.9867 61.2591 52.431 62.4366 53.1863 63.503C54.3638 65.147 55.5635 66.7688 56.741 68.4128C57.0076 68.7905 57.2964 69.1682 57.3408 69.6569C57.4519 70.79 57.563 71.923 57.6963 73.0338C57.7629 73.7447 57.8296 74.4557 57.9407 75.1666C58.0073 75.5887 58.2295 75.8997 58.7182 75.8775C59.1626 75.8553 59.3625 75.5887 59.4292 75.211C59.4736 74.9889 59.5402 74.7889 59.5625 74.5667C59.8513 73.056 60.1179 71.5231 60.4067 70.0124C60.5844 69.0793 61.0287 68.3017 61.7841 67.7241C64.0946 65.9468 67.2049 67.2575 67.7825 70.2345C68.0936 71.8341 68.3602 73.4337 68.6712 75.0555C68.7601 75.5221 68.96 75.922 69.5154 75.8997C70.0486 75.8775 70.1819 75.4998 70.2263 75.0555C70.3152 74.1224 70.4707 73.1893 70.5374 72.2562C70.6485 70.3678 70.9595 68.635 72.3369 67.1465C73.3144 66.1023 74.0476 64.836 74.914 63.6807C75.7138 62.5921 76.2026 61.3924 76.2026 60.0594C76.1803 57.7045 75.1806 55.8161 73.0923 54.6386C70.9817 53.4611 68.8045 53.5278 66.7828 54.8386C64.9388 56.0382 63.206 56.016 61.362 54.8163C59.3625 53.5056 57.2075 53.4834 55.1192 54.6164C53.0975 55.7494 52.0755 57.5712 52.0089 59.9261Z" fill="white"/>
<path d="M14.863 82.2759C13.33 82.2759 11.8193 82.2981 10.2864 82.2759C8.35356 82.2536 7.50934 81.3872 7.4649 79.4766C7.44269 78.4991 7.44269 77.5438 7.4649 76.5662C7.50934 74.8334 8.35356 73.9447 10.1087 73.9225C13.3078 73.8781 16.4848 73.8781 19.6839 73.9225C21.4168 73.9447 22.2166 74.7889 22.2166 76.4996C22.2166 77.5438 22.2166 78.6102 22.2166 79.6543C22.2166 81.365 21.439 82.2092 19.6839 82.2536C18.0844 82.3203 16.4848 82.2759 14.863 82.2759ZM14.9074 76.6551C13.9965 76.6551 13.0857 76.6551 12.1748 76.6551C10.1975 76.6551 10.242 76.6551 10.1975 78.6324C10.1975 79.3877 10.4641 79.5655 11.175 79.5432C13.2856 79.4988 15.3962 79.5655 17.4845 79.521C19.995 79.4766 19.5506 80.0542 19.6173 77.2994C19.6173 76.7884 19.3951 76.6329 18.9064 76.6329C17.5734 76.6773 16.2404 76.6551 14.9074 76.6551Z" fill="white"/>
<path d="M37.7901 24.7798C34.9908 24.7798 32.6359 22.4026 32.6803 19.6256C32.7247 16.8041 35.0352 14.5158 37.8567 14.538C40.656 14.5602 43.0332 16.9374 42.9887 19.6922C42.9665 22.4915 40.6116 24.7798 37.7901 24.7798ZM37.8123 22.0249C39.1897 22.0249 40.2561 20.9808 40.2561 19.6478C40.2561 18.3148 39.1675 17.2706 37.8123 17.2706C36.4793 17.2706 35.4129 18.3148 35.3907 19.6033C35.3463 20.9141 36.4571 22.0249 37.8123 22.0249Z" fill="white"/>
<path d="M64.3167 61.5256C62.806 61.5256 61.6286 61.2145 60.5177 60.5925C59.6957 60.1481 59.4291 59.4372 59.7624 58.7263C60.1178 58.0154 60.8954 57.771 61.7396 58.1931C63.3392 58.9929 64.9166 58.9707 66.5162 58.1709C67.316 57.771 68.0935 58.0154 68.449 58.7041C68.8045 59.3928 68.5601 60.1259 67.7381 60.5703C66.6273 61.2368 65.3831 61.5034 64.3167 61.5256Z" fill="white"/>
</svg>
