<svg width="76" height="75" viewBox="0 0 76 75" fill="none" xmlns="http://www.w3.org/2000/svg">
<path d="M64.153 8.78097C64.153 6.4161 64.153 4.05123 64.153 1.68636C64.153 0.727028 64.5099 0.169276 65.2239 0.0354152C66.027 -0.120755 66.6517 0.236206 67.0087 1.17323C68.7489 5.76911 70.556 10.365 72.2292 15.0055C74.1256 20.2707 70.6898 25.6251 65.1123 26.1828C62.0335 26.4952 58.9324 26.5621 55.9206 25.6028C55.519 25.4689 55.2289 25.5359 54.9389 25.8259C53.3772 27.3876 51.8378 28.9493 50.2538 30.4887C49.9415 30.7787 49.9191 31.0688 50.053 31.448C50.7 33.2105 50.2315 34.7053 48.9152 35.9993C48.6252 36.2893 48.3351 36.6017 48.0228 36.8917C47.465 37.4048 47.0188 37.9403 46.9296 38.7657C46.8403 39.6135 46.2826 40.2828 45.6802 40.8852C35.0829 51.4602 24.5079 62.0352 13.9107 72.5878C11.6573 74.8412 8.86857 75.5105 5.81209 74.6181C2.75561 73.7257 0.81463 71.6062 0.189947 68.4605C-0.367805 65.6271 0.390738 63.1061 2.46558 61.0535C6.88298 56.6361 11.3004 52.241 15.7178 47.8236C21.8307 41.733 27.9437 35.62 34.0567 29.507C34.9268 28.637 35.9084 28.1015 37.1578 28.0569C37.5594 28.0569 37.8271 27.8338 38.0948 27.5884C38.6749 27.0306 39.2326 26.4283 39.8573 25.9151C40.8389 25.0896 41.9767 24.7104 43.2707 25.0227C43.8062 25.1566 44.1408 24.9781 44.5201 24.5988C46.2826 22.814 48.0674 21.0515 49.8299 19.2667C50.3653 18.7313 50.9008 18.4859 51.6816 18.4859C54.7381 18.5305 57.8169 18.642 60.8734 18.8205C62.8367 18.9321 64.2199 17.705 64.2199 15.7417C64.153 13.4661 64.153 11.1235 64.153 8.78097ZM37.2693 30.8903C36.8008 30.9349 36.4662 31.158 36.1761 31.4703C29.2377 38.3865 22.3216 45.3249 15.3608 52.2187C14.9146 52.6649 14.9592 52.9326 15.3831 53.3565C17.4803 55.4314 19.5774 57.5062 21.6523 59.6034C22.1431 60.0942 22.4108 60.0273 22.857 59.5811C24.6195 57.7962 26.4043 56.0337 28.1668 54.2713C33.2535 49.2069 38.3402 44.1202 43.4046 39.0558C44.297 38.1634 44.3862 37.5164 43.65 36.7578C41.8652 34.9507 40.0581 33.1659 38.2733 31.3811C37.9832 31.1134 37.6486 30.9349 37.2693 30.8903ZM8.08772 72.0078C9.53788 72.0301 10.7872 71.5616 11.7912 70.5576C13.5314 68.8397 15.2493 67.0996 17.0118 65.3817C17.391 65.0024 17.4356 64.757 17.0341 64.3777C14.87 62.2583 12.7282 60.0942 10.5865 57.9524C10.2295 57.5955 9.98408 57.5731 9.62712 57.9524C7.84231 59.7595 6.01288 61.4997 4.27269 63.3515C2.7333 64.9801 2.39865 66.9434 3.31336 68.9959C4.22807 70.9815 5.87902 71.9855 8.08772 72.0078ZM54.9389 21.4308C55.5636 22.5463 56.4783 22.814 57.393 23.0371C59.8471 23.6395 62.3459 23.5726 64.8 23.3048C67.5218 23.0148 69.1951 21.3416 69.7528 18.8205C69.8644 18.2628 69.909 17.705 69.7974 17.1696C69.1951 14.6485 68.0573 12.3283 67.1648 9.91879C67.0979 11.8151 67.0756 13.7115 67.0979 15.5856C67.1425 19.2667 64.3315 21.9216 60.7842 21.6762C58.8878 21.5647 56.9914 21.6762 54.9389 21.4308ZM47.4204 32.7197C47.4427 32.4297 47.3089 32.1396 47.0634 31.8942C45.8364 30.6449 44.6093 29.4178 43.3377 28.1908C42.8022 27.6776 42.1775 27.6999 41.5975 28.1684C41.2851 28.4362 40.9951 28.7485 40.6828 29.0162C40.3481 29.3063 40.4597 29.507 40.7274 29.7525C42.3337 31.3365 43.9177 32.9205 45.5017 34.5045C45.6356 34.6384 45.7472 34.8168 45.9926 34.7276C46.4611 34.5938 47.4204 33.2775 47.4204 32.7197ZM52.9087 23.6172C52.4625 23.2156 52.0163 22.8363 51.637 22.4124C51.3024 22.0555 51.0793 22.0778 50.7446 22.4124C49.696 23.4833 48.6028 24.5319 47.5543 25.6028C46.238 26.9414 46.1264 26.5398 47.5989 28.0346C47.9335 28.3915 48.2013 28.4139 48.5582 28.0346C49.8522 26.696 51.1908 25.402 52.5071 24.0857C52.641 23.9741 52.7302 23.8403 52.9087 23.6172ZM12.8621 54.9406C12.6167 54.9629 12.4605 55.119 12.3713 55.2752C12.1705 55.5652 12.4159 55.7437 12.5944 55.8999C14.7584 58.064 16.9225 60.2057 19.0866 62.3698C19.332 62.6152 19.5328 62.9053 19.9121 62.526C20.2913 62.1467 19.9567 61.9459 19.7336 61.7005C17.5918 59.5587 15.4501 57.417 13.3083 55.2975C13.1521 55.1637 12.9959 55.0521 12.8621 54.9406Z" fill="white"/>
<path d="M67.6108 74.9303C64.8443 74.975 62.9256 74.1941 61.3639 72.6324C54.2247 65.5601 47.1301 58.4432 40.0132 51.3486C39.2323 50.5677 39.1877 49.7199 39.857 49.073C40.504 48.4706 41.2849 48.5152 42.0657 49.2961C45.4791 52.6872 48.8926 56.0783 52.2837 59.5141C52.8192 60.0718 53.1315 60.0718 53.667 59.5141C55.6526 57.4615 57.7051 55.4313 59.7576 53.4457C60.293 52.9103 60.2484 52.6203 59.7353 52.1294C56.5003 48.9391 53.31 45.7264 50.0973 42.5138C49.8519 42.2684 49.5842 42.0007 49.3834 41.7106C48.9372 41.0636 49.0488 40.4389 49.5842 39.9035C50.0973 39.3904 50.7889 39.3458 51.4136 39.792C51.5698 39.9035 51.7037 40.0374 51.8375 40.1935C58.8206 47.1543 65.8036 54.0927 72.7644 61.0981C76.4009 64.7569 75.8878 70.6691 71.7381 73.5471C70.3326 74.5065 68.8824 74.9303 67.6108 74.9303ZM67.053 72.03C67.4769 71.9854 67.9008 71.9854 68.3024 71.8962C72.2066 70.9815 73.6791 66.2963 70.935 63.3514C69.2171 61.4997 67.3654 59.7595 65.5805 57.9524C65.112 57.4839 64.8666 57.6847 64.5097 58.0416C62.4348 60.1388 60.3377 62.2136 58.2405 64.2884C57.8166 64.7123 57.7497 64.9577 58.2182 65.4262C59.9361 67.0995 61.6093 68.7951 63.3049 70.4906C64.3312 71.5169 65.5805 72.03 67.053 72.03ZM62.9033 55.5429C62.9033 55.2752 62.7472 55.1413 62.591 55.0297C62.2563 54.8066 62.0779 55.1413 61.8994 55.3198C59.7576 57.4615 57.6158 59.6033 55.4741 61.7228C55.2287 61.9682 54.9386 62.169 55.3179 62.5482C55.6972 62.9275 55.898 62.5929 56.1434 62.3698C58.2851 60.228 60.4269 58.0862 62.5687 55.9668C62.7025 55.8106 62.8141 55.6544 62.9033 55.5429Z" fill="white"/>
<path d="M13.5315 0.0353218C19.5329 -0.210089 26.0029 4.4081 26.8953 11.8151C27.1853 14.2022 26.873 16.5448 25.8244 18.7312C25.579 19.2443 25.6682 19.579 26.0698 19.9582C27.8992 21.743 29.7063 23.5725 31.5135 25.3796C32.6067 26.4728 32.6067 27.0752 31.4911 28.1907C30.5095 29.1723 29.5279 30.154 28.5462 31.1356C27.4084 32.2734 26.7837 32.2734 25.6682 31.1579C23.928 29.44 22.1655 27.7221 20.47 25.9597C19.9568 25.4465 19.5776 25.3573 18.9083 25.6473C11.3228 28.9938 2.6442 24.8665 0.502431 16.9464C-1.66165 9.02629 3.64815 1.10621 11.8583 0.0576319C12.416 -0.00929838 12.9738 0.0353218 13.5315 0.0353218ZM13.3754 24.041C18.9083 23.9517 23.928 19.9805 24.0842 13.5552C24.2181 8.06696 20.0684 3.00256 13.6431 2.84639C8.11017 2.71253 3.00116 6.90683 2.88961 13.3321C2.80037 18.7758 6.92774 23.7286 13.3754 24.041ZM27.0738 28.3915C27.6538 28.1014 27.9662 27.5883 28.39 27.209C28.7024 26.919 28.6801 26.6513 28.39 26.3612C27.0291 25.0226 25.6682 23.6617 24.3073 22.3008C24.1065 22.1 23.8165 21.8769 23.6157 22.2339C23.281 22.8362 22.3663 23.0147 22.4333 23.8625C22.4333 23.9294 22.5448 23.9964 22.5894 24.041C23.9503 25.4019 25.3113 26.7405 26.6722 28.1014C26.7837 28.213 26.9399 28.3022 27.0738 28.3915Z" fill="white"/>
<path d="M22.9239 13.4884C22.9239 18.7313 18.7519 22.8363 13.4421 22.8363C8.17694 22.8363 4.1165 18.6643 4.04957 13.3769C3.98264 8.31246 8.44466 3.87275 13.6429 4.00661C18.8189 4.11816 22.9239 8.20091 22.9239 13.4884ZM13.5314 6.83999C10.0064 6.79537 6.94988 9.718 6.92757 13.3545C6.90526 16.9465 9.58247 19.8691 13.4644 20.0029C16.9894 20.0922 20.0459 17.1249 20.0682 13.4884C20.0905 9.89648 17.4133 6.99617 13.5314 6.83999Z" fill="white"/>
</svg>
