<svg width="87" height="86" viewBox="0 0 87 86" fill="none" xmlns="http://www.w3.org/2000/svg">
<path d="M71.5984 40.9646C71.2389 41.8035 71.3108 42.4267 71.1909 43.0499C70.9992 44.1046 70.5438 44.584 69.6808 44.608C68.77 44.608 68.2666 44.1286 68.1468 43.002C67.979 41.3241 67.5715 39.7661 66.5168 38.4237C65.1505 36.6979 63.4247 35.6432 61.2194 35.4275C60.8359 35.3795 60.4524 35.3316 60.0689 35.2597C59.2779 35.1159 58.8224 34.5406 58.8464 33.7256C58.8704 32.9346 59.3498 32.3593 60.1647 32.2874C61.7228 32.1196 63.2329 31.8799 64.5752 30.993C66.8284 29.5069 66.8524 29.1234 64.6711 27.6133C60.0928 24.4732 55.1311 23.802 49.8816 25.4799C45.2794 26.9661 40.773 26.8702 36.1708 25.432C26.7266 22.4358 17.1386 27.9968 14.9334 37.6327C14.8135 38.1361 14.7656 38.6395 14.6218 39.1189C14.3821 40.0058 13.6869 40.4612 12.8 40.3174C12.033 40.1975 11.5296 39.5503 11.6015 38.6874C11.8173 36.2664 12.5364 33.9893 13.7588 31.9039C17.9536 24.617 24.3296 21.2133 32.7191 21.5968C34.2772 21.6687 35.8112 22.0043 37.2734 22.5316C40.9168 23.874 44.5603 23.8979 48.2517 22.6994C52.3266 21.3571 56.4254 21.0695 60.5962 22.2919C63.0411 22.9871 65.2464 24.1616 67.2599 25.7196C67.4516 25.8635 67.5954 26.1511 67.8591 26.0552C68.1228 25.9593 68.0029 25.6238 68.0269 25.408C68.0988 25.0485 68.1228 24.6889 68.1707 24.3534C68.2906 23.5384 68.8179 23.059 69.6089 23.035C70.4479 23.011 71.0232 23.4904 71.167 24.3294C71.2868 25.0964 71.3348 25.8874 71.5505 26.6305C72.3415 29.6747 74.9782 31.9039 78.0943 32.2155C78.4778 32.2634 78.8613 32.3114 79.2449 32.3833C80.0359 32.5271 80.5153 33.0784 80.5153 33.8694C80.5153 34.6604 80.0598 35.2357 79.2449 35.3556C77.8786 35.5473 76.5362 35.6912 75.2898 36.3863C74.6426 36.7458 74.4029 37.1054 74.5228 37.9443C75.4097 43.6013 74.2351 48.7788 70.6636 53.2851C68.3625 56.1855 66.6127 59.3735 65.8217 62.993C64.9108 67.1638 64.1198 71.3585 63.2808 75.5293C62.9692 77.0154 62.6816 78.5255 62.1782 79.9637C61.1235 83.0079 58.1992 85.0693 55.0591 85.0214C51.7992 84.9735 48.8749 82.8401 47.9161 79.724C47.5805 78.6694 47.3408 77.5907 47.1011 76.5121C46.8854 75.6012 47.3408 74.8102 48.1318 74.5705C48.9947 74.3068 49.7857 74.7383 50.0734 75.6971C50.3371 76.6079 50.5048 77.5667 50.7685 78.4776C51.7513 81.8334 55.3947 82.96 58.1033 80.7308C59.0621 79.9398 59.3498 78.8611 59.5895 77.7345C60.5483 73.1802 61.531 68.6259 62.4179 64.0477C63.3288 59.2537 65.3183 54.987 68.3625 51.1758C70.6157 48.2275 71.6943 44.8956 71.5984 40.9646ZM69.561 37.2492C69.8486 37.2492 69.9205 37.0814 70.0164 36.9376C70.7835 35.8589 71.6703 34.9001 72.773 34.1571C73.2044 33.8694 73.0846 33.6777 72.749 33.438C71.6464 32.647 70.6876 31.7121 69.9445 30.5616C69.7288 30.25 69.561 30.1061 69.3213 30.5376C68.6262 31.6882 67.6674 32.5751 66.5647 33.3181C66.0853 33.6537 66.0853 33.8934 66.5647 34.229C67.6194 34.9481 68.4823 35.835 69.2014 36.8657C69.3452 37.0335 69.4651 37.1533 69.561 37.2492Z" fill="white"/>
<path d="M48.707 70.1361C48.707 71.071 48.2036 71.7421 47.4606 71.862C46.6456 72.0058 46.0224 71.6223 45.7587 70.8792C45.495 70.1841 45.3992 69.441 45.1834 68.7219C44.7999 67.4275 44.1287 66.8762 43.0741 66.8762C41.9954 66.9002 41.3243 67.5474 40.9887 68.8418C40.1977 72.0537 39.4067 75.2897 38.6396 78.5017C37.3692 83.823 32.0958 86.3638 27.4936 83.8709C25.4082 82.7204 24.1617 80.9226 23.6823 78.5975C22.6277 73.4919 21.573 68.3624 20.4943 63.2568C19.7992 59.901 18.385 56.8568 16.3236 54.1242C15.5805 53.1414 14.8614 52.1586 14.1902 51.1279C13.591 50.2171 13.7827 49.3302 14.5258 48.8508C15.3168 48.3474 16.2277 48.6111 16.8269 49.522C18.1213 51.5594 19.7513 53.3811 20.9258 55.5144C22.7955 58.8942 23.5865 62.5856 24.3295 66.3249C25.0966 70.1601 25.8876 73.9953 26.6786 77.8065C27.158 80.2035 28.788 81.6417 31.0411 81.6897C33.3423 81.7376 34.9722 80.4432 35.5715 78.0223C36.4104 74.6665 37.2254 71.2867 38.0643 67.9309C38.6876 65.3901 40.6531 63.7601 43.098 63.7122C45.495 63.6642 47.5804 65.3901 48.2276 67.9309C48.3714 68.7459 48.5632 69.5129 48.707 70.1361Z" fill="white"/>
<path d="M42.6905 34.205C38.304 34.0852 33.8216 32.9107 29.6029 30.6335C28.5961 30.0822 28.2606 29.2672 28.692 28.4283C29.1475 27.5654 30.0343 27.3736 31.089 27.9249C35.2119 30.0822 39.5984 31.2088 44.2725 30.9931C47.868 30.8253 51.2478 29.8185 54.4837 28.2605C54.7953 28.0927 55.107 27.9249 55.4425 27.7811C56.3055 27.3976 57.1204 27.6612 57.504 28.4283C57.8875 29.2193 57.6478 30.0343 56.8328 30.4897C54.4118 31.832 51.871 32.8148 49.1624 33.414C47.1729 33.9174 45.1354 34.205 42.6905 34.205Z" fill="white"/>
<path d="M78.9811 20.83C79.7961 20.782 80.2755 21.1176 80.5391 21.7169C80.8028 22.3401 80.7309 23.0112 80.1556 23.4187C78.8133 24.3775 77.3991 25.1925 75.889 25.8876C75.2178 26.1992 74.4987 25.9595 74.0912 25.2644C73.7077 24.6172 73.7077 23.8502 74.3309 23.3948C75.6732 22.388 77.1594 21.621 78.6695 20.8779C78.7893 20.806 78.9571 20.83 78.9811 20.83Z" fill="white"/>
<path d="M75.4333 60.2845C75.697 60.2845 75.9607 60.3325 76.2004 60.4523C77.4228 61.1475 78.6453 61.8186 79.8438 62.5617C80.6588 63.0651 80.8745 63.904 80.467 64.6471C80.0595 65.3662 79.1966 65.6778 78.3577 65.2463C77.0633 64.5752 75.7929 63.8081 74.5464 63.0411C73.8753 62.6336 73.7075 61.9385 73.9472 61.2194C74.1869 60.5961 74.7142 60.2366 75.4333 60.2845Z" fill="white"/>
<path d="M25.9355 10.7145C25.9355 11.5295 25.5999 12.0089 25.0007 12.2246C24.4014 12.4403 23.7542 12.3924 23.3707 11.8651C22.364 10.5467 21.573 9.10851 20.8778 7.62238C20.5662 6.92725 20.782 6.18418 21.525 5.77669C22.2441 5.3692 23.0112 5.48905 23.4426 6.13624C24.3056 7.45459 25.0486 8.84485 25.8396 10.2351C25.9355 10.4029 25.9115 10.6426 25.9355 10.7145Z" fill="white"/>
<path d="M60.2606 10.6186C60.2606 10.5707 60.2845 10.307 60.3804 10.1152C61.1235 8.82085 61.8426 7.5025 62.6336 6.25606C63.089 5.53696 63.904 5.39314 64.5991 5.75269C65.2943 6.11224 65.6538 6.90325 65.2943 7.67029C64.5991 9.10849 63.8081 10.5227 62.8733 11.8411C62.4418 12.4163 61.7946 12.4643 61.1714 12.2246C60.5482 11.9849 60.2366 11.4815 60.2606 10.6186Z" fill="white"/>
<path d="M7.14293 20.8058C7.45454 20.7818 7.76615 20.9017 8.05379 21.0695C9.15641 21.7166 10.283 22.3399 11.3856 23.011C12.2965 23.5623 12.5601 24.4253 12.1287 25.2163C11.6733 25.9833 10.7864 26.199 9.85154 25.6957C8.65304 25.0245 7.45454 24.3533 6.28001 23.6342C5.60885 23.2268 5.39312 22.5796 5.60885 21.8605C5.82458 21.1414 6.35192 20.7818 7.14293 20.8058Z" fill="white"/>
<path d="M10.595 60.3085C11.4339 60.2606 11.9373 60.5722 12.177 61.1714C12.4407 61.7947 12.3927 62.4658 11.8174 62.8973C10.4991 63.8801 9.06089 64.695 7.57475 65.3662C6.92756 65.6538 6.20846 65.4621 5.777 64.7669C5.36951 64.0958 5.39348 63.3527 5.99273 62.8973C7.31108 61.8666 8.82119 61.1235 10.3073 60.3565C10.4511 60.2846 10.6189 60.2846 10.595 60.3085Z" fill="white"/>
<path d="M41.6117 3.64344C41.6117 2.92434 41.5878 2.20524 41.6117 1.51011C41.6357 0.55131 42.211 0 43.1218 0C43.9848 0 44.584 0.55131 44.584 1.46217C44.608 2.92434 44.608 4.38651 44.584 5.82471C44.56 6.7116 43.9848 7.28688 43.1218 7.28688C42.211 7.31085 41.6357 6.73557 41.6117 5.80074C41.5878 5.08164 41.6117 4.36254 41.6117 3.64344Z" fill="white"/>
<path d="M3.57153 44.6081C2.85243 44.6081 2.13333 44.6321 1.4382 44.6081C0.55131 44.5842 0 43.9849 0 43.146C0 42.283 0.52734 41.6598 1.41423 41.6598C2.90037 41.6359 4.38651 41.6359 5.87265 41.6598C6.75954 41.6838 7.28688 42.307 7.28688 43.1699C7.26291 43.9849 6.73557 44.5842 5.92059 44.6321C5.10561 44.6321 4.33857 44.6081 3.57153 44.6081Z" fill="white"/>
<path d="M82.5768 44.6082C81.8337 44.6082 81.0907 44.6321 80.3476 44.6082C79.4607 44.5602 78.9094 43.985 78.9334 43.122C78.9334 42.2591 79.4847 41.6599 80.3716 41.6359C81.8337 41.6119 83.2959 41.6119 84.7341 41.6359C85.621 41.6599 86.1963 42.2351 86.1963 43.0981C86.2203 43.985 85.645 44.5842 84.7101 44.6321C84.6622 44.6321 84.5903 44.6321 84.5423 44.6321C83.8952 44.6082 83.224 44.6082 82.5768 44.6082Z" fill="white"/>
<path d="M14.8133 44.7759C14.8373 45.6628 14.2141 46.3579 13.3512 46.3819C12.4882 46.4058 11.7212 45.6628 11.7452 44.8238C11.7452 44.0088 12.4643 43.2897 13.2793 43.2658C14.1182 43.2418 14.7894 43.9129 14.8133 44.7759Z" fill="white"/>
</svg>
