<svg width="215" height="184" viewBox="0 0 215 184" fill="none" xmlns="http://www.w3.org/2000/svg">
<path d="M0.65332 141.764C12.5616 141.973 22.1718 132.989 24.2609 122.335C24.2609 122.126 24.4698 121.708 24.4698 121.499C24.6788 120.245 24.052 118.365 25.5144 117.947C27.3947 117.321 29.4839 117.529 31.573 117.947C32.4087 118.156 32.4087 118.992 32.4087 119.619C33.6622 131.945 42.2278 140.719 54.5539 141.764C56.0163 141.973 56.643 142.6 56.643 143.853C56.852 148.658 56.852 148.658 52.2558 149.494C41.1832 151.583 33.4533 160.149 32.4087 171.221C32.1998 172.892 31.573 173.519 30.1106 173.31C28.6482 173.101 26.7679 173.728 25.5144 173.101C23.8431 172.475 24.6788 170.385 24.4698 168.923C22.3807 157.85 12.5616 149.285 0.862237 149.285C0.65332 146.778 0.65332 144.271 0.65332 141.764ZM40.7654 145.315C40.5564 145.107 40.3475 144.898 39.9297 144.689C35.3335 141.973 31.7819 138.421 29.066 133.825C28.4393 132.989 28.0214 132.78 27.3947 133.825C24.6788 138.421 21.1272 142.182 16.531 144.689C15.6953 145.315 15.4864 145.733 16.531 146.36C21.1272 149.076 24.8877 152.628 27.3947 157.224C27.8125 158.059 28.4393 158.268 29.066 157.224C31.7819 152.628 35.3335 149.076 39.9297 146.151C40.3475 146.151 40.7654 145.942 40.7654 145.315Z" fill="#0D436B"/>
<path d="M28.2303 50.467C27.8124 43.1549 28.0213 35.6339 31.1551 28.5307C37.6315 12.653 49.3309 3.25178 66.2531 0.535859C76.699 -1.13548 86.3091 1.16261 95.2926 6.59445C103.649 11.6085 111.797 11.6085 120.154 6.59445C143.552 -6.98515 171.965 1.58044 183.456 26.0237C184.082 27.4861 184.918 27.904 186.38 27.904C190.559 27.904 190.559 27.904 191.185 31.8734C192.857 42.5282 201.631 50.6759 212.286 51.7205C214.166 51.9294 215.002 52.5562 215.002 54.6453C214.793 59.0326 215.002 59.0326 210.824 59.8683C199.542 61.9574 192.021 70.3141 190.977 81.5956C190.768 83.2669 190.141 83.6848 188.678 83.6848C183.873 83.8937 183.873 83.8937 182.411 88.4899C179.068 100.189 174.472 111.262 167.996 121.29C157.759 136.959 151.909 154.299 147.94 172.474C147.313 174.773 146.686 177.28 145.015 179.16C141.881 182.92 137.912 184.592 133.107 183.547C128.093 182.502 124.75 179.369 123.914 174.355C122.661 168.087 121.825 161.611 120.989 155.343C119.318 144.271 117.647 133.198 115.975 122.125C115.349 117.529 112.006 114.813 107.828 114.813C103.44 114.813 100.307 117.529 99.4709 122.125C96.9639 137.794 94.6658 153.672 92.3677 169.55C92.1588 171.221 91.9499 172.683 91.5321 174.355C90.2786 179.787 85.8913 183.756 80.6684 183.965C75.0276 184.383 70.0136 181.04 68.3423 175.608C67.0888 171.639 66.2531 167.669 65.2085 163.7C61.657 148.449 55.3894 134.452 47.2417 121.081C37.4226 105.412 31.5729 88.281 29.0659 70.1052C28.2303 63.4198 28.0213 57.1523 28.2303 50.467ZM35.5423 49.4224C35.3334 56.1077 35.7513 62.3753 36.378 68.4339C38.4672 85.3561 43.899 101.234 52.6735 115.649C59.5678 126.931 65.8353 138.421 69.3869 151.165C71.4761 158.059 73.1474 165.162 75.0276 172.266C75.8633 174.981 77.5346 176.444 79.8327 176.235C82.3397 176.026 84.0111 174.355 84.4289 171.639C86.9359 155.552 89.234 139.466 91.5321 123.17C92.1588 118.156 93.6212 113.56 98.0085 110.426C107.828 103.114 121.198 108.546 123.287 120.872C126.003 137.585 128.301 154.299 130.808 171.012C131.226 174.146 132.898 176.026 135.405 176.026C137.703 176.235 139.583 174.564 140.419 171.848C141.254 168.923 142.09 165.789 142.717 162.655C146.268 146.987 152.118 132.154 160.892 118.574C170.085 104.159 175.934 88.4899 178.65 71.7765C179.068 69.6873 178.65 68.2249 177.188 66.7625C173.427 62.7931 168.831 60.2861 163.399 59.4504C159.221 58.8237 159.43 58.6147 159.221 54.4364C159.221 52.3472 160.057 51.7205 161.937 51.5116C168.622 51.0937 173.845 47.96 178.024 42.946C179.277 41.4836 179.904 39.8122 179.486 37.7231C178.233 29.3664 174.054 22.2632 167.578 16.6225C155.878 6.38553 138.329 4.29636 123.705 13.2798C113.259 19.7562 102.605 19.5473 91.9499 13.2798C86.9359 10.355 81.5041 8.4747 75.6544 7.84795C60.6124 6.17661 45.3614 14.9511 38.885 28.7396C35.7513 35.425 35.1245 42.7371 35.5423 49.4224ZM187.425 68.2249C187.843 68.2249 188.052 67.8071 188.261 67.3893C190.977 62.7931 194.528 59.2415 199.124 56.5256C200.378 55.8988 199.96 55.2721 198.915 54.8542C194.528 52.1383 190.977 48.7957 188.47 44.4084C187.634 43.1549 187.216 43.1549 186.38 44.4084C183.664 48.7957 180.322 52.3472 175.726 54.8542C174.472 55.481 174.681 56.1077 175.726 56.7345C180.113 59.2415 183.664 62.7931 186.38 67.1803C186.589 67.5982 186.798 68.016 187.425 68.2249Z" fill="#0D436B"/>
<path d="M48.2859 65.5091C49.9572 65.3002 50.1662 66.3447 50.1662 67.3893C51.4197 76.5817 53.7177 85.5651 57.2693 94.1307C59.5674 99.5625 62.0744 104.785 65.2082 109.799C66.2528 111.471 66.0438 112.306 64.3725 113.142C60.1942 115.858 60.1942 115.858 57.6872 111.471C49.7483 98.1001 44.9432 83.6848 42.8541 68.225C42.6451 66.5537 43.063 65.718 44.9432 65.718C45.9878 65.9269 47.2413 65.718 48.2859 65.5091Z" fill="#0D436B"/>
<path d="M107.619 31.8735C99.4708 31.6646 92.1587 29.5754 85.0555 25.3971C83.5931 24.5614 83.3842 23.9346 84.4287 22.4722C87.3536 18.2939 87.1447 18.5028 91.7408 20.592C103.231 26.0238 114.513 25.606 125.585 19.5474C127.466 18.5028 128.51 18.5028 129.555 20.383C129.764 20.592 129.973 21.0098 130.182 21.2187C132.271 24.3525 132.271 24.3525 128.928 26.2327C122.452 29.7843 115.348 31.6646 107.619 31.8735Z" fill="#0D436B"/>
<path d="M49.3311 55.6897C49.3311 59.4502 49.3311 59.4502 44.735 59.4502C42.019 59.4502 42.019 59.4502 42.019 55.4808C42.019 52.1381 42.019 51.9292 44.735 52.1381C49.5401 52.1381 49.3311 51.5114 49.3311 55.6897Z" fill="#0D436B"/>
</svg>
