<svg width="86" height="85" viewBox="0 0 86 85" fill="none" xmlns="http://www.w3.org/2000/svg">
<path d="M85.1157 51.6852C84.8497 51.9956 84.5837 52.328 84.2955 52.6162C79.4413 57.4704 74.5871 62.3025 69.7328 67.1346C68.425 68.4424 67.8044 68.4645 66.4745 67.1568C66.0755 66.7578 65.8317 66.7135 65.4105 67.1346C64.0141 68.5754 62.5733 69.994 61.1326 71.4125C60.8444 71.7007 60.7336 71.9224 61.0217 72.3213C63.7924 76.1116 62.4847 80.2344 58.8717 82.8056C57.165 84.0247 55.2144 84.601 53.1973 85C51.7566 85 50.3158 85 48.875 85C46.7028 84.5345 44.5971 83.8696 42.8239 82.451C38.5237 79.0818 38.5902 73.6513 42.979 70.4373C45.7054 68.4645 48.7864 67.7109 52.1555 67.9769C54.1726 68.1321 56.0788 68.6419 57.8521 69.6171C58.2732 69.8388 58.5392 69.7501 58.8717 69.4398C60.3568 67.9326 61.864 66.4253 63.3935 64.918C63.7259 64.5856 63.7703 64.3417 63.4156 64.0536C63.2161 63.8984 63.061 63.6989 62.8837 63.5216C62.1744 62.7015 62.1965 61.9922 62.9058 61.1499C62.9945 61.0391 63.1053 60.9504 63.194 60.8618C69.5333 54.5224 75.8727 48.2052 82.2342 41.8659C82.2785 41.8216 82.3228 41.7772 82.345 41.7551C83.4089 40.7355 84.1626 40.7798 85.16 41.8659C85.1157 45.1686 85.1157 48.4269 85.1157 51.6852ZM51.0694 82.052C53.7293 82.052 56.101 81.2762 57.7856 79.8354C59.8913 78.0179 60.0465 75.6683 58.1846 73.6734C54.9041 70.1491 47.2126 70.1713 43.9543 73.7178C42.1589 75.6683 42.3362 78.1065 44.3976 79.8354C46.3038 81.4535 48.5869 82.052 51.0694 82.052ZM82.1455 48.5156C82.1455 48.1609 82.1677 47.8063 82.1455 47.4295C82.1455 47.1635 82.2785 46.7645 82.0347 46.6537C81.7022 46.4985 81.5249 46.9196 81.3475 47.097C76.6928 51.7296 72.0602 56.3622 67.4276 60.9726C66.0312 62.369 66.0533 62.3469 67.3833 63.7433C67.9374 64.3196 68.2477 64.3417 68.824 63.7654C72.7916 59.7535 76.7814 55.7637 80.8156 51.8182C81.7687 50.8651 82.5001 49.9563 82.1455 48.5156Z" fill="white"/>
<path d="M0 0.926185C0.886621 -0.226422 1.77324 -0.315084 2.77069 0.726695C6.87131 5.02681 10.9498 9.34908 15.0282 13.6935C15.8483 14.558 15.8927 15.09 15.2499 16.0431C14.9396 16.4864 15.2055 16.6859 15.4494 16.9519C16.6685 18.171 17.8876 19.3679 19.0845 20.587C20.2371 21.7396 20.2371 22.4489 19.0845 23.6015C17.7546 24.9536 17.7546 24.9536 19.1067 26.3057C20.7691 27.9681 22.4315 29.6305 24.0939 31.2929C25.4682 32.6672 25.6233 33.709 24.7811 35.4822C24.3599 36.3689 23.7614 37.189 23.7836 38.2529C23.8279 40.1592 25.579 41.4891 27.3966 40.8906C28.7265 40.4473 30.0343 39.8932 31.342 39.3612C31.9183 39.1174 32.2065 39.1839 32.4725 39.8045C33.3148 41.8659 33.3369 41.8659 31.2312 42.686C30.1673 43.1072 29.1477 43.5948 28.0394 43.883C25.7342 44.4593 23.7171 43.8608 22.1655 42.0876C20.6361 40.3586 20.2815 38.3194 21.1016 36.125C21.3232 35.5044 21.6335 34.9059 21.9439 34.3296C22.1655 33.9306 22.1434 33.6425 21.8109 33.31C19.8825 31.4038 17.9541 29.4975 16.0478 27.5691C15.6932 27.1923 15.4272 27.2367 15.0947 27.5913C14.7401 27.9681 14.3633 28.3449 13.9643 28.6996C13.0998 29.4754 12.3019 29.4754 11.4817 28.6553C10.2183 27.414 8.95487 26.1727 7.7136 24.9093C7.29246 24.4881 7.0043 24.2221 6.45017 24.7541C6.02902 25.1531 5.38622 25.1974 4.89858 24.8206C3.23617 23.4464 1.46292 22.1386 0 20.4983C0 13.9817 0 7.44285 0 0.926185ZM3.12534 5.55878C2.90368 5.95776 2.97018 6.26808 2.97018 6.57839C2.97018 9.94755 2.97018 13.3167 2.97018 16.708C2.97018 19.3901 2.99235 19.3679 5.05374 21.0303C5.47488 21.3628 5.7187 21.3406 6.07335 20.9638C7.86876 19.1241 9.7085 17.3065 11.5482 15.5111C11.9472 15.1343 12.0137 14.8905 11.5926 14.4472C9.79716 12.6074 8.04608 10.7233 6.27284 8.83928C5.25323 7.75317 4.21145 6.68922 3.12534 5.55878ZM16.1587 22.1164C16.0922 22.0056 16.0478 21.8948 15.9813 21.8283C14.9839 20.8308 13.9864 19.8334 12.989 18.8359C12.723 18.5699 12.5457 18.7694 12.3684 18.9468C11.4596 19.8555 10.5286 20.7865 9.59767 21.6953C9.26519 22.0056 9.30952 22.2051 9.61984 22.4932C10.5286 23.3799 11.4374 24.2665 12.324 25.1974C12.6122 25.5077 12.8338 25.5521 13.1442 25.2196C14.0308 24.3108 14.9396 23.4242 15.8483 22.5154C15.9592 22.4046 16.0478 22.2494 16.1587 22.1164Z" fill="white"/>
<path d="M51.7787 64.6522C51.823 64.9404 51.6678 65.1177 51.3353 65.162C50.9585 65.2285 50.5817 65.295 50.1827 65.3394C48.8306 65.5388 48.8528 65.5388 48.6311 64.2089C47.7667 58.9778 46.9022 53.7468 45.9935 48.5379C45.661 46.5873 44.3532 45.5234 42.4913 45.5455C40.6737 45.5677 39.4103 46.6317 39.1 48.5379C37.9695 55.121 36.8834 61.7042 35.7751 68.2874C35.4205 70.4153 35.1767 72.5431 34.6447 74.6489C33.9576 77.3087 31.5415 79.3036 28.926 79.4145C25.9115 79.5474 23.3181 77.885 22.365 75.1808C21.833 73.6736 21.7665 72.0998 21.5449 70.5482C20.9464 66.2703 20.3701 61.9702 19.7716 57.6701C19.3505 54.6112 18.9293 51.5524 18.5304 48.4936C18.4417 47.8064 18.2644 47.1636 17.8876 46.543C15.405 42.5754 13.5875 38.3196 12.4349 33.7757C12.2575 33.0442 12.3905 32.756 13.1663 32.6009C15.1834 32.1797 15.1834 32.1354 15.7153 34.1081C16.6463 37.566 17.9541 40.8908 19.9268 43.9053C21.1459 45.7672 21.5449 47.7621 21.8109 49.89C22.4537 54.9881 23.1851 60.064 23.8944 65.1399C24.2491 67.7554 24.6259 70.3931 24.9584 73.0086C25.2022 74.9814 26.4656 76.2891 28.2389 76.3335C30.1894 76.3778 31.4972 75.2252 31.8518 73.186C33.2261 64.8517 34.6225 56.5175 36.019 48.2054C36.4623 45.5677 37.8587 43.6393 40.4521 42.797C42.9124 41.9991 45.1733 42.5089 47.0574 44.2821C48.1878 45.3461 48.7863 46.6982 49.0301 48.2054C49.9167 53.4586 50.8034 58.7119 51.6678 63.9651C51.7565 64.2089 51.7565 64.4084 51.7787 64.6522Z" fill="white"/>
<path d="M73.8777 24.5991C73.7225 31.6256 71.9049 38.652 68.0481 45.0579C66.9177 46.9419 66.4744 48.8925 66.2306 50.9761C66.0754 52.2838 65.8759 53.5916 65.7208 54.9215C65.6543 55.4092 65.4104 55.6086 64.945 55.5422C64.3908 55.4757 63.8589 55.387 63.3047 55.2983C62.7949 55.2318 62.5954 54.9658 62.6841 54.456C63.0387 51.9735 63.3712 49.491 63.7037 46.9863C63.7924 46.3656 64.0805 45.8337 64.413 45.3238C67.1394 41.0681 69.0456 36.4798 70.043 31.5147C70.6637 28.4337 70.974 25.3305 70.7745 22.2052C70.3977 16.287 65.8094 10.8343 59.9799 9.26055C56.7659 8.39609 53.5741 8.50692 50.4487 9.72602C48.1435 10.6348 45.7718 11.2776 43.2893 11.3884C40.3856 11.5214 37.6814 10.8565 34.9994 9.85902C28.9038 7.57597 23.429 8.63991 18.6634 13.1173C18.1757 13.5607 17.8432 13.5607 17.4221 13.1173C17.1783 12.8514 16.8901 12.6297 16.6463 12.3859C15.804 11.5879 15.7819 11.5658 16.602 10.8121C22.1212 5.78056 28.4384 4.3398 35.5092 6.82234C38.0582 7.70896 40.6072 8.48475 43.3558 8.32959C45.5723 8.21877 47.6337 7.53164 49.6951 6.75584C60.401 2.72172 72.3483 9.96984 73.7225 21.3408C73.8334 22.2939 73.8555 23.2248 73.8777 24.5991Z" fill="white"/>
</svg>
