<svg width="85" height="85" viewBox="0 0 85 85" fill="none" xmlns="http://www.w3.org/2000/svg">
<path d="M84.6079 76.8428C83.7212 80.1094 81.8546 82.5827 78.7513 84.0527C74.738 85.9426 69.7914 84.9393 66.8281 81.626C60.5515 74.6261 54.2516 67.6263 47.9751 60.603C47.8117 60.4397 47.6484 60.2764 47.5084 60.0897C47.1117 59.5297 46.6918 59.5064 46.0851 59.833C42.9818 61.443 39.7152 62.5397 36.2619 63.0063C27.232 64.2196 19.0422 62.073 11.8789 56.4031C5.22904 51.1298 1.33243 44.1533 0.28245 35.7534C-0.884199 26.5135 1.56576 18.2303 7.58567 11.1138C12.6489 5.14051 19.1122 1.5239 26.8354 0.380583C36.2386 -0.996064 44.6851 1.36057 51.9883 7.47381C58.2416 12.7004 61.8815 19.4903 62.9548 27.5635C63.8182 34.0967 62.7448 40.35 59.7116 46.2066C59.3849 46.8132 59.4549 47.1632 59.9449 47.6065C65.9415 52.9731 71.8914 58.3631 77.888 63.7296C79.1246 64.8496 80.3613 65.9463 81.5979 67.0663C83.1379 68.4896 84.0479 70.2862 84.6312 72.2928C84.6079 73.8095 84.6079 75.3261 84.6079 76.8428ZM60.1549 31.6934C60.2949 16.0137 47.4851 3.08721 31.6886 3.04054C15.7056 2.99388 3.03574 16.0603 3.03574 31.6701C3.03574 46.9999 15.2856 60.253 31.5253 60.2997C47.8351 60.3697 60.2949 47.0932 60.1549 31.6934ZM74.4113 81.9527C74.9947 81.8827 75.578 81.8827 76.138 81.7427C78.9146 81.0427 80.7812 79.2927 81.5046 76.5394C82.2746 73.6462 81.5046 71.0795 79.2879 69.0729C74.4113 64.6396 69.4881 60.2764 64.6348 55.8431C64.1215 55.3764 63.8415 55.4231 63.3748 55.8898C60.8549 58.4564 58.3349 60.9763 55.7916 63.4963C55.325 63.963 55.2783 64.2196 55.7449 64.7563C60.1549 69.6096 64.5182 74.5095 68.8814 79.3861C70.3514 81.0427 72.1714 81.9527 74.4113 81.9527ZM53.155 61.6763C53.3417 61.6763 53.4817 61.5363 53.5983 61.4197C56.1649 58.853 58.7549 56.2631 61.3215 53.6965C61.6015 53.4165 61.6249 53.1831 61.3215 52.9031C60.2715 51.9698 59.2449 51.0365 58.2182 50.1032C57.8683 49.7765 57.5883 49.7765 57.2849 50.1965C55.2783 53.0431 52.8517 55.4464 50.0284 57.4531C49.655 57.7097 49.6084 57.9431 49.935 58.2931C50.8684 59.2964 51.755 60.323 52.6883 61.3497C52.805 61.4663 52.945 61.653 53.155 61.6763Z" fill="white"/>
<path d="M55.8619 31.6702C56.0018 44.2467 45.9687 55.9365 31.7355 56.0065C17.4091 56.0532 7.32925 44.3633 7.35258 31.6469C7.37591 18.8137 17.6191 7.40388 31.5722 7.35721C45.6653 7.33388 56.0252 18.9304 55.8619 31.6702ZM52.8286 31.6702C52.9919 20.3537 43.6587 10.4138 31.6655 10.3905C19.6724 10.3672 10.3625 20.2604 10.3625 31.6469C10.3625 43.08 19.6024 53.0199 31.6889 52.9732C43.7287 52.9265 53.0152 42.9867 52.8286 31.6702Z" fill="white"/>
<path d="M31.6185 41.4932C31.2918 43.2198 30.9885 44.8765 30.3585 46.4631C30.0552 47.2331 29.7052 47.9564 29.1919 48.6098C27.6519 50.5697 25.1786 50.7331 23.4286 48.9364C22.2387 47.6998 21.632 46.1598 21.1887 44.5498C20.7687 43.0098 20.4887 41.4232 20.2787 39.8366C19.952 37.3399 18.8787 35.1233 17.5487 33C15.2154 29.2667 14.6788 25.3001 16.2887 21.1235C17.7821 17.2736 21.072 15.0803 25.2019 15.0103C27.2319 14.9636 29.1219 15.3369 30.9419 16.1769C31.4085 16.3869 31.7818 16.3869 32.2485 16.1536C34.8151 14.9403 37.4984 14.6603 40.2517 15.2903C44.2183 16.2002 47.0183 19.5369 47.6249 23.7601C48.0683 26.9568 47.5549 29.99 45.805 32.6267C43.915 35.4966 42.9817 38.5766 42.5383 41.9132C42.2817 43.9198 41.745 45.8565 40.7184 47.6298C40.345 48.2598 39.9251 48.8431 39.3417 49.2864C37.5451 50.6864 35.3051 50.3831 33.9751 48.5398C32.7152 46.7898 32.2485 44.7365 31.8285 42.6832C31.7585 42.3099 31.6885 41.9365 31.6185 41.4932ZM18.4587 25.5801C18.412 27.8667 19.0654 29.8034 20.232 31.5767C21.982 34.19 23.0086 37.0599 23.4053 40.1866C23.662 42.2399 24.0353 44.2932 25.0619 46.1131C25.3186 46.5565 25.5986 47.0698 26.2286 47.0465C26.8352 47.0231 26.9986 46.4865 27.2086 46.0431C28.0719 44.2698 28.3986 42.3332 28.6786 40.3966C28.8652 39.1366 29.0052 37.8533 29.7052 36.7333C30.6852 35.17 32.4818 35.17 33.4618 36.7333C33.9751 37.5266 34.2318 38.4366 34.3485 39.3699C34.6518 41.6099 34.9318 43.8732 35.9118 45.9731C36.1218 46.4398 36.3318 46.9998 36.9384 47.0465C37.5918 47.0931 37.8717 46.5331 38.1517 46.0431C39.0151 44.5032 39.4351 42.7765 39.6451 41.0499C40.065 37.5499 41.0917 34.3066 43.075 31.3434C44.615 29.0334 45.105 26.4201 44.545 23.6435C43.7517 19.7469 40.6017 17.5536 36.6818 18.0202C35.0485 18.2069 33.5785 18.7435 32.2018 19.6069C31.7818 19.8869 31.4318 19.8869 31.0119 19.6069C29.5652 18.6735 28.0019 18.0902 26.2753 17.9969C23.2653 17.8102 20.8153 18.8369 19.462 21.4268C18.762 22.7801 18.3887 24.2035 18.4587 25.5801Z" fill="white"/>
</svg>
