<svg width="185" height="183" viewBox="0 0 185 183" fill="none" xmlns="http://www.w3.org/2000/svg">
<path d="M0.857209 179.084C6.2268 172.998 11.5964 166.913 17.145 160.827C23.0515 154.205 29.1371 147.403 35.0436 140.781C35.5806 140.244 36.1175 139.528 36.6545 138.991C37.9074 137.738 39.6973 137.559 40.7712 138.633C42.0241 139.707 42.2031 141.318 40.7712 142.75C37.3704 146.508 33.9697 150.267 30.569 154.205C22.5146 163.154 14.4602 172.282 6.2268 181.232C4.07896 183.558 3.00505 183.558 0.678223 181.411C0.857209 180.695 0.857209 179.8 0.857209 179.084Z" fill="#0D436B"/>
<path d="M84.265 20.1438C78.5375 16.564 72.8099 15.3111 66.7244 18.3539C60.6388 21.3967 57.4171 26.5873 56.8801 33.3888C56.5221 36.7895 57.0591 39.8323 58.312 43.054C59.7439 46.9917 60.9968 50.9294 62.2497 54.6882C63.3236 58.2679 62.9656 61.8476 63.3236 65.6063C64.2186 73.1238 64.9345 80.6412 67.2613 87.8007C67.7983 89.5905 68.5142 91.3804 69.5881 92.8123C70.8411 94.4231 71.915 94.6021 73.7048 93.5282C76.0317 91.9173 77.2846 89.5905 78.5375 87.0847C80.5063 82.789 81.9382 78.3144 83.0121 73.8397C83.7281 70.7969 85.16 68.1121 88.0237 66.3223C93.7513 62.9215 100.553 65.9643 101.985 72.4078C102.701 75.8086 103.238 79.3883 104.491 82.61C105.564 85.4738 106.817 88.1586 108.607 90.6644C109.323 91.5594 109.681 91.9173 110.755 91.0224C112.903 89.4115 114.872 87.8007 117.557 87.2637C118.451 87.0847 118.451 86.1898 118.809 85.4738C120.241 80.1042 121.136 74.7346 121.673 69.1861C121.852 68.2911 121.852 67.3962 122.031 66.5013C122.389 64.8904 123.642 63.9955 125.253 64.1744C126.864 64.3534 127.759 65.4273 127.58 67.0382C127.401 71.3339 126.685 75.6296 125.969 79.7463C125.611 82.0731 125.074 84.2209 124.358 86.5477C124.179 87.4427 124.179 87.9796 125.074 88.6956C130.265 92.6333 130.802 98.7188 126.864 103.909C122.21 109.995 117.378 115.902 111.471 120.734C112.008 121.271 112.545 121.092 113.082 121.092C122.926 121.092 132.77 121.092 142.615 121.092C145.299 121.092 147.626 120.197 149.595 118.228C155.86 112.322 161.945 106.236 168.389 100.509C172.326 96.929 177.517 96.75 181.455 100.151C185.213 103.372 185.929 108.921 183.066 113.038C176.98 121.987 170.894 130.757 164.63 139.528C161.766 143.644 157.828 146.329 152.817 147.403C133.844 151.52 115.051 155.816 96.0781 159.932C92.8564 160.648 89.6346 161.364 86.2339 162.08C83.0121 162.796 80.5063 164.407 78.5375 166.913C75.1367 171.566 71.557 176.041 68.1562 180.695C67.7983 181.232 67.2613 181.948 66.7244 182.305C65.6504 183.2 64.3975 183.2 63.3236 182.305C62.2497 181.411 61.8917 180.337 62.6077 178.905C62.9656 178.368 63.3236 177.831 63.6816 177.294C67.0823 172.64 70.6621 167.987 74.2418 163.333C76.9266 159.753 80.5063 157.426 84.981 156.352C106.817 151.699 128.475 146.687 150.311 142.034C154.786 141.139 158.186 138.812 160.871 134.874C166.42 126.641 172.326 118.407 177.875 110.353C178.591 109.279 179.128 108.384 179.128 107.131C178.949 105.52 178.233 104.446 176.801 103.73C175.369 103.193 173.758 103.193 172.684 104.446C171.073 105.878 169.463 107.31 168.031 108.921C163.556 113.217 159.081 117.512 154.607 121.808C151.206 125.209 147.089 126.82 142.257 126.82C130.086 126.82 117.914 126.82 105.743 126.82C104.133 126.82 102.701 127.178 101.448 128.252C100.195 129.326 98.7629 130.22 97.331 131.115C95.5412 132.189 93.9303 132.01 92.8564 130.578C91.9615 129.147 92.3194 127.536 93.9303 126.462C99.2999 122.703 104.669 119.123 109.681 114.828C115.051 110.353 118.988 104.804 123.105 99.4348C124.537 97.4659 124.358 95.3181 122.747 93.7072C121.136 92.0963 119.167 91.9173 117.02 93.5282C110.576 98.1819 103.954 102.836 97.51 107.489C96.2571 108.384 94.8252 108.921 93.2144 109.279C85.8759 110.711 78.5375 112.322 71.199 113.933C61.5338 116.081 54.7323 121.808 50.7946 130.936C50.6156 131.294 50.6156 131.652 50.4366 132.01C49.5417 133.8 48.1098 134.516 46.4989 133.979C44.888 133.263 44.3511 131.831 45.067 129.862C46.8569 125.03 49.7206 120.734 53.4794 117.154C58.491 112.322 64.5765 109.458 71.557 108.026C78.3585 106.773 84.981 105.162 91.7825 103.909C92.8564 103.73 93.7513 103.372 94.6462 102.657C97.689 100.33 100.911 98.1819 103.954 96.034C104.848 95.3181 105.027 94.9601 104.312 93.8862C100.374 88.3376 98.226 82.0731 97.1521 75.2716C96.6151 72.0498 95.3622 70.439 93.2144 70.439C91.2455 70.439 89.4556 72.0498 88.9187 74.9136C87.4868 81.1782 85.5179 87.4427 82.1172 92.9913C80.1483 96.034 77.8215 98.7188 73.8838 99.6138C71.199 100.151 69.0512 99.6138 67.0823 97.8239C64.9345 96.034 63.8606 93.5282 62.7867 91.0224C59.9229 84.7579 59.0279 78.1354 58.133 71.5129C57.5961 67.0382 57.2381 62.5636 57.0591 57.9099C57.0591 57.194 56.7011 56.478 56.5221 55.7621C55.0902 51.1084 53.3004 46.6338 52.0475 41.9801C48.2888 29.809 54.5533 16.743 66.0084 12.2684C71.557 10.1205 77.1056 10.1205 82.4752 12.8053C85.16 14.0582 87.8448 15.1321 90.5296 16.564C92.1404 17.459 93.5723 17.28 95.1832 16.564C99.1209 14.5952 103.238 12.4474 107.533 11.5524C109.86 11.0155 112.187 10.6575 114.514 11.1944C115.588 11.3734 116.483 10.8365 117.199 10.1205C123.284 3.856 130.802 0.813232 139.572 0.813232C152.996 0.813232 165.525 11.5524 167.673 24.9764C170.357 41.6221 159.976 56.299 143.51 59.3418C126.864 62.5636 110.397 49.6765 108.965 32.6728C108.607 27.4822 109.323 22.6496 111.471 17.9959C112.187 16.3851 111.471 16.2061 110.218 16.3851C107.354 16.743 104.848 17.8169 102.164 19.0699C97.331 21.2177 92.6774 23.9025 87.4868 25.1554C85.16 25.6923 82.8331 26.0503 80.5063 26.2293C78.5375 26.4083 76.9266 25.1554 76.7476 23.3655C76.7476 21.7546 78.0005 20.5017 80.1483 20.5017C81.5802 20.6807 82.6542 20.5017 84.265 20.1438ZM162.303 30.346C162.303 17.101 151.922 6.5408 138.677 6.5408C125.432 6.5408 114.872 16.922 114.693 29.988C114.693 43.233 125.253 53.9722 138.319 54.1512C151.564 54.1512 162.303 43.77 162.303 30.346Z" fill="#0D436B"/>
<path d="M47.2142 74.1979C47.2142 75.6298 46.1403 76.8827 44.3505 77.0617C42.9186 77.2407 42.2026 77.5986 42.2026 79.2095C42.2026 80.8204 40.9497 81.8943 39.5178 82.0733C37.728 82.0733 36.654 81.1784 36.654 79.5675C36.4751 77.7776 35.7591 77.2407 34.1482 77.0617C32.5374 76.8827 31.6424 75.6298 31.8214 74.0189C32.0004 72.408 32.8953 71.5131 34.5062 71.5131C36.1171 71.5131 36.4751 70.9761 36.654 69.5442C36.833 67.7544 38.0859 66.5015 39.6968 66.5015C41.3077 66.5015 42.3816 67.7544 42.3816 69.7232C42.3816 71.1551 42.9186 71.5131 44.3505 71.5131C45.9613 71.3341 47.2142 72.587 47.2142 74.1979Z" fill="#0D436B"/>
<path d="M19.6504 49.4976C19.6504 51.1084 18.3975 52.3614 16.7866 52.3614C15.3547 52.3614 14.1018 51.1084 13.9229 49.6766C13.9229 48.0657 14.9968 46.8128 16.6076 46.6338C18.3975 46.6338 19.6504 47.8867 19.6504 49.4976Z" fill="#0D436B"/>
<path d="M154.07 30.346C154.07 30.883 154.07 31.4199 154.07 31.9569C154.07 35.5366 151.922 37.8634 148.342 37.8634C146.731 37.8634 146.194 38.2214 146.194 40.0113C146.194 43.949 144.226 45.7388 140.288 46.0968C138.856 46.2758 137.424 46.0968 135.992 45.9178C132.949 45.5598 131.16 43.591 130.981 40.3692C130.981 38.0424 130.981 38.0424 128.475 37.8634C125.253 37.6844 123.463 35.8946 122.926 32.8518C122.747 31.4199 122.747 29.809 122.926 28.3771C123.284 24.6184 124.895 22.8286 128.833 22.8286C130.623 22.8286 130.981 22.2916 130.981 20.5017C130.981 16.922 133.128 14.7742 136.708 14.7742C137.782 14.7742 139.035 14.7742 140.109 14.7742C143.689 14.7742 145.836 16.564 146.015 20.3228C146.194 22.1126 146.552 22.8286 148.521 22.8286C152.638 23.0075 154.07 24.9764 154.07 30.346ZM138.498 40.0113C139.751 40.1902 140.288 39.6533 140.288 38.4004C140.288 37.3265 140.288 36.4315 140.288 35.3576C140.288 33.2098 141.362 32.1359 143.51 31.9569C144.584 31.7779 145.836 31.9569 146.91 31.9569C148.163 31.9569 148.342 31.2409 148.342 30.167C148.342 29.0931 148.163 28.3771 146.91 28.5561C145.836 28.5561 144.584 28.5561 143.51 28.5561C141.541 28.3771 140.467 27.4822 140.467 25.5134C140.467 24.4394 140.467 23.1865 140.467 22.1126C140.467 20.8597 139.93 20.6807 138.856 20.5017C137.782 20.5017 137.066 20.6807 137.066 22.1126C137.066 23.1865 137.066 24.2605 137.066 25.3344C136.887 27.4822 135.813 28.3771 133.665 28.5561C132.591 28.5561 131.518 28.5561 130.444 28.5561C129.191 28.3771 128.833 29.0931 128.833 30.346C128.833 31.5989 129.191 32.1359 130.444 32.1359C131.339 32.1359 132.413 32.1359 133.307 32.1359C135.813 32.3148 136.887 33.3888 137.066 35.7156C137.066 36.6105 137.066 37.6844 137.066 38.5794C136.708 39.6533 137.245 40.1902 138.498 40.0113Z" fill="#0D436B"/>
</svg>
